<?xml version="1.0" encoding="utf-8"?>
<!-- Generator: Adobe Illustrator 14.0.0, SVG Export Plug-In . SVG Version: 6.00 Build 43363)  -->
<!DOCTYPE svg PUBLIC "-//W3C//DTD SVG 1.0//EN" "http://www.w3.org/TR/2001/REC-SVG-20010904/DTD/svg10.dtd">
<svg version="1.0" id="Calque_1" xmlns="http://www.w3.org/2000/svg" xmlns:xlink="http://www.w3.org/1999/xlink" x="0px" y="0px"
	 width="1005px" height="768px" viewBox="0 0 1005 768" enable-background="new 0 0 1005 768" xml:space="preserve">
<path fill="#26A9E0" d="M921.058,406.927l-105.464,0.002c0,0-0.784-2.626-0.784-3.501s0.784-3.5,0.784-3.5h105.464V406.927z"/>
<circle fill="#26A9E0" cx="882.604" cy="402.924" r="5.5"/>
<path fill="#90278E" d="M441.988,507.547l-181.968,0.002c0,0-1.354-2.626-1.354-3.501s1.354-3.5,1.354-3.5h181.968V507.547z"/>
<path fill="#90278E" d="M445.147,401.188l0.002,102.348c0,0-2.625,0.762-3.5,0.762s-3.5-0.762-3.5-0.762V401.188H445.147z"/>
<path fill="#0B4A9E" d="M382.778,310.288V89.567c0-1.294-1.566-2.345-3.5-2.345c-1.933,0-3.5,1.051-3.5,2.345v220.721H382.778z"/>
<path fill="#FFCF00" d="M702.764,206.015c0,1.933-2.139,3.5-4.776,3.5H97.209c-2.638,0-4.775-1.567-4.775-3.5l0,0
	c0-1.933,2.138-3.5,4.775-3.5h600.778C700.625,202.515,702.764,204.083,702.764,206.015L702.764,206.015z"/>
<circle fill="#FFCF00" cx="194.28" cy="206.015" r="5.5"/>
<circle fill="#FFCF00" cx="163.667" cy="206.015" r="5.5"/>
<circle fill="#FFCF00" cx="316.731" cy="206.015" r="5.5"/>
<circle fill="#FFCF00" cx="347.345" cy="206.015" r="5.5"/>
<circle fill="#FFCF00" cx="286.119" cy="206.015" r="5.5"/>
<circle fill="#FFCF00" cx="224.893" cy="206.015" r="5.5"/>
<circle fill="#FFCF00" cx="255.506" cy="206.015" r="5.5"/>
<circle fill="#FFFFFF" stroke="#231F20" stroke-width="3" cx="379.239" cy="206.015" r="6.781"/>
<circle fill="#FFCF00" cx="92.434" cy="206.015" r="5.5"/>
<path fill="#0B4A9E" d="M32.913,155.04l0.106,154.366c0,0.905-1.565,1.642-3.499,1.643c-1.933,0.001-3.5-0.732-3.501-1.639
	l-0.106-154.365L32.913,155.04z"/>
<path fill="#0B4A9E" d="M378.918,313.515H33.14c-2.028,0-3.675-1.566-3.675-3.5c0-1.933,1.647-3.5,3.675-3.5h345.778V313.515z"/>
<path fill="#C693C7" d="M30.66,548.01c-1.933,0.003-3.501-1.011-3.503-2.27L26.81,312.026c-0.002-1.256,1.564-2.275,3.497-2.277l0,0
	c1.933-0.003,3.501,1.011,3.503,2.267l0.347,233.715C34.159,546.989,32.592,548.007,30.66,548.01L30.66,548.01z"/>
<path fill="#FD7929" d="M611.5,746.84c0,1.933-2.027,3.5-4.528,3.5H37.361c-2.5,0-4.527-1.567-4.527-3.5l0,0
	c0-1.933,2.027-3.5,4.527-3.5h569.611C609.473,743.34,611.5,744.907,611.5,746.84L611.5,746.84z"/>
<path fill="#EC297B" d="M774.436,640.322c0,1.933-2.625,3.5-5.861,3.5H31.196c-3.238,0-5.862-1.567-5.862-3.5l0,0
	c0-1.933,2.624-3.5,5.862-3.5h737.378C771.811,636.822,774.436,638.39,774.436,640.322L774.436,640.322z"/>
<text transform="matrix(0.7071 -0.7071 0.7071 0.7071 415.6699 195.5532)" font-family="'Arial'" font-size="12">Bouletcorp</text>
<text transform="matrix(0.7071 -0.7071 0.7071 0.7071 166.8965 193.8413)" font-family="'Arial'" font-size="12">Ombligopolis</text>
<text transform="matrix(0.7071 -0.7071 0.7071 0.7071 92.4336 191.7197)" font-family="'Arial'" font-size="12">Chez Kek</text>
<text transform="matrix(0.7071 -0.7071 0.7071 0.7071 194.2803 193.8496)" font-family="'Arial'" font-size="12">Cretinolandia</text>
<text transform="matrix(0.7071 -0.7071 0.7071 0.7071 320.7314 191.7197)" font-family="'Arial'" font-size="12">Javi Prieto</text>
<text transform="matrix(0.7071 -0.7071 0.7071 0.7071 255.5059 191.7197)" font-family="'Arial'" font-size="12">L’actu en patate</text>
<text transform="matrix(0.7071 -0.7071 0.7071 0.7071 611.8828 195.5527)" font-family="'Arial'" font-size="12">La Cárcel de Papel</text>
<text transform="matrix(0.7071 -0.7071 0.7071 0.7071 643.9258 195.5522)" font-family="'Arial'" font-size="12">Le blog de Gally</text>
<text transform="matrix(0.7071 -0.7071 0.7071 0.7071 443.5723 195.5527)" font-family="'Arial'" font-size="12">Les petits riens</text>
<text transform="matrix(0.7071 -0.7071 0.7071 0.7071 471.6689 195.5522)" font-family="'Arial'" font-size="12">Lommsek</text>
<text transform="matrix(0.7071 -0.7071 0.7071 0.7071 283.0361 186.2676)"><tspan x="0" y="0" font-family="'Arial'" font-size="12">Ma vie est une </tspan><tspan x="0.001" y="14.401" font-family="'Arial'" font-size="12"> bande dessinée</tspan></text>
<text transform="matrix(0.7071 -0.7071 0.7071 0.7071 527.7549 195.5522)" font-family="'Arial'" font-size="12">Mauro Entrialgo</text>
<text transform="matrix(0.7071 -0.7071 0.7071 0.7071 555.7969 195.5527)" font-family="'Arial'" font-size="12">Mazapilones</text>
<text transform="matrix(0.7071 -0.7071 0.7071 0.7071 583.8398 195.5527)" font-family="'Arial'" font-size="12">Melakarnets</text>
<text transform="matrix(0.7071 -0.7071 0.7071 0.7071 499.7119 195.5527)" font-family="'Arial'" font-size="12">Monsieur Dream</text>
<text transform="matrix(0.7071 -0.7071 0.7071 0.7071 674.7207 195.5439)" font-family="'Arial'" font-size="12">Tonterias del Rock</text>
<text transform="matrix(0.7071 -0.7071 0.7071 0.7071 224.8926 191.7197)" font-family="'Arial'" font-size="12">Trop d&apos;la bulle</text>
<text transform="matrix(0.7071 -0.7071 0.7071 0.7071 707.4902 187.3623)"><tspan x="0" y="0" font-family="'Arial'" font-size="12">Tu mourras </tspan><tspan x="0.001" y="14.401" font-family="'Arial'" font-size="12">moins  bête</tspan></text>
<text transform="matrix(0.7071 -0.7071 0.7071 0.7071 347.3447 191.7197)" font-family="'Arial'" font-size="12">Xkcd</text>
<text transform="matrix(0.7071 -0.7071 0.7071 0.7071 149.3867 187.4766)" font-family="'Arial'" font-size="12">Geek&amp;poke</text>
<text transform="matrix(0.7071 -0.7071 0.7071 0.7071 153.3242 273.7988)" font-family="'Arial'" font-size="12">Lifehacker</text>
<text transform="matrix(0.7071 -0.7071 0.7071 0.7071 153.3242 488.0918)" font-family="'Arial'" font-size="12">AccessOWeb</text>
<text transform="matrix(0.7071 -0.7071 0.7071 0.7071 149.584 130.0386)" font-family="'Arial'" font-size="12">Genbeta</text>
<text transform="matrix(0.7071 -0.7071 0.7071 0.7071 153.3242 242.3389)" font-family="'Arial'" font-size="12">2803</text>
<text transform="matrix(0.7071 -0.7071 0.7071 0.7071 153.3242 347.6724)" font-family="'Arial'" font-size="12">Alt1040</text>
<text transform="matrix(0.7071 -0.7071 0.7071 0.7071 153.3242 370.6367)" font-family="'Arial'" font-size="12">Webatou</text>
<text transform="matrix(0.7071 -0.7071 0.7071 0.7071 153.3242 399.4014)" font-family="'Arial'" font-size="12">ReadWriteWeb</text>
<text transform="matrix(0.7071 -0.7071 0.7071 0.7071 153.332 431.5781)" font-family="'Arial'" font-size="12">TechCrunch</text>
<text transform="matrix(0.7071 -0.7071 0.7071 0.7071 153.3242 304.5146)" font-family="'Arial'" font-size="12">Web, je vous dis web</text>
<text transform="matrix(0.7071 -0.7071 0.7071 0.7071 153.3242 458.1309)" font-family="'Arial'" font-size="12">Standblog</text>
<text transform="matrix(0.7071 -0.7071 0.7071 0.7071 153.3242 521.1094)" font-family="'Arial'" font-size="12">Mashable!</text>
<text transform="matrix(0.7071 -0.7071 0.7071 0.7071 153.3242 551.2871)" font-family="'Arial'" font-size="12">Webmonkey</text>
<text transform="matrix(0.7071 -0.7071 0.7071 0.7071 158.5693 630.3105)" font-family="'Arial'" font-size="12">Cocktail de Web News </text>
<text transform="matrix(0.7071 -0.7071 0.7071 0.7071 150.3242 677.5273)" font-family="'Arial'" font-size="12">Xataka</text>
<text transform="matrix(0.7071 -0.7071 0.7071 0.7071 153.3242 579.4629)" font-family="'Arial'" font-size="12">Enrique Dans</text>
<text transform="matrix(0.7071 -0.7071 0.7071 0.7071 153.3242 713.8809)" font-family="'Arial'" font-size="12">Martin Varsavsky</text>
<text transform="matrix(0.7071 -0.7071 0.7071 0.7071 153.3242 607.2324)" font-family="'Arial'" font-size="12">eCuaderno</text>
<text transform="matrix(0.7071 -0.7071 0.7071 0.7071 159.8193 737.3398)" font-family="'Arial'" font-size="12">Fred Cavazza</text>
<path fill="#C4CA0C" d="M134.613,753.35c-1.933,0-3.5-2.85-3.5-6.365l0-653.898c0-3.514,1.567-6.363,3.5-6.363l0,0
	c1.933,0,3.5,2.85,3.5,6.363v653.898C138.113,750.5,136.546,753.35,134.613,753.35L134.613,753.35z"/>
<circle fill="#FFFFFF" stroke="#231F20" stroke-width="3" cx="134.613" cy="640.322" r="6.781"/>
<path fill="#753D0A" d="M29.468,86.722c0-1.933,0.452-3.5,1.011-3.5l103.846,0c0.558,0,1.011,1.567,1.011,3.5l0,0
	c0,1.933-0.453,3.5-1.011,3.5H30.479C29.92,90.222,29.468,88.656,29.468,86.722L29.468,86.722z"/>
<circle fill="#FFFFFF" stroke="#231F20" stroke-width="3" cx="134.613" cy="746.84" r="6.781"/>
<circle fill="#FFFFFF" stroke="#231F20" stroke-width="3" cx="134.335" cy="206.015" r="6.781"/>
<circle fill="#C4CA0C" cx="134.613" cy="273.799" r="5.5"/>
<circle fill="#C4CA0C" cx="134.613" cy="239.266" r="5.5"/>
<path fill="#C4CA0C" d="M140.113,163.136c0,3.037-2.465,5.5-5.5,5.5c-3.04,0-5.5-2.463-5.5-5.5s2.46-5.5,5.5-5.5
	C137.647,157.636,140.113,160.099,140.113,163.136z"/>
<text transform="matrix(0.7071 -0.7071 0.7071 0.7071 134.3398 74.9458)" font-family="'Arial'" font-size="12">FrAndroid</text>
<circle fill="#C4CA0C" cx="134.473" cy="458.131" r="5.5"/>
<circle fill="#C4CA0C" cx="134.613" cy="338.291" r="5.5"/>
<circle fill="#C4CA0C" cx="134.613" cy="368.25" r="5.5"/>
<circle fill="#C4CA0C" cx="134.613" cy="398.21" r="5.5"/>
<circle fill="#C4CA0C" cx="134.613" cy="428.17" r="5.5"/>
<circle fill="#C4CA0C" cx="134.613" cy="488.091" r="5.5"/>
<circle fill="#C4CA0C" cx="134.613" cy="518.052" r="5.5"/>
<circle fill="#C4CA0C" cx="134.613" cy="548.011" r="5.5"/>
<circle fill="#C4CA0C" cx="134.613" cy="577.97" r="5.5"/>
<circle fill="#C4CA0C" cx="134.613" cy="607.931" r="5.5"/>
<circle fill="#C4CA0C" cx="134.613" cy="674.047" r="5.5"/>
<circle fill="#C4CA0C" cx="134.613" cy="710.202" r="5.5"/>
<circle fill="#FFFFFF" stroke="#231F20" stroke-width="3" cx="134.613" cy="87.222" r="6.781"/>
<circle fill="#FFFFFF" stroke="#231F20" stroke-width="3" cx="134.473" cy="309.612" r="6.781"/>
<circle fill="#753D0A" cx="64.777" cy="86.721" r="5.5"/>
<circle fill="#753D0A" cx="30.5" cy="86.721" r="5.5"/>
<circle fill="#753D0A" cx="99.054" cy="86.721" r="5.5"/>
<text transform="matrix(0.7071 -0.7071 0.7071 0.7071 30.7676 72.8335)" font-family="'Arial'" font-size="12">News mobile</text>
<text transform="matrix(0.7071 -0.7071 0.7071 0.7071 99.0547 72.833)" font-family="'Arial'" font-size="12">Celularis</text>
<text transform="matrix(0.7071 -0.7071 0.7071 0.7071 64.7773 72.833)" font-family="'Arial'" font-size="12">Business mobile</text>
<circle fill="#EC297B" cx="53.833" cy="640.321" r="5.5"/>
<circle fill="#EC297B" cx="80.333" cy="640.321" r="5.5"/>
<circle fill="#EC297B" cx="106.832" cy="640.321" r="5.5"/>
<circle fill="#EC297B" cx="769.228" cy="640.321" r="5.5"/>
<circle fill="#EC297B" cx="217.333" cy="640.321" r="5.5"/>
<circle fill="#EC297B" cx="304.543" cy="640.321" r="5.5"/>
<circle fill="#EC297B" cx="332.586" cy="640.321" r="5.5"/>
<circle fill="#EC297B" cx="360.628" cy="640.321" r="5.5"/>
<circle fill="#EC297B" cx="388.671" cy="640.321" r="5.5"/>
<circle fill="#EC297B" cx="416.714" cy="640.321" r="5.5"/>
<circle fill="#EC297B" cx="444.757" cy="640.321" r="5.5"/>
<circle fill="#EC297B" cx="472.8" cy="640.321" r="5.5"/>
<circle fill="#EC297B" cx="500.843" cy="640.321" r="5.5"/>
<circle fill="#EC297B" cx="532.886" cy="640.321" r="5.5"/>
<circle fill="#EC297B" cx="564.929" cy="640.321" r="5.5"/>
<circle fill="#EC297B" cx="592.971" cy="640.321" r="5.5"/>
<circle fill="#EC297B" cx="621.014" cy="640.321" r="5.5"/>
<circle fill="#EC297B" cx="649.057" cy="640.321" r="5.5"/>
<circle fill="#EC297B" cx="677.1" cy="640.321" r="5.5"/>
<circle fill="#EC297B" cx="708.143" cy="640.321" r="5.5"/>
<circle fill="#EC297B" cx="740.185" cy="640.321" r="5.5"/>
<text transform="matrix(0.7071 -0.7071 0.7071 0.7071 188.4766 630.3105)" font-family="'Arial'" font-size="12">Collabtopia</text>
<text transform="matrix(0.7071 -0.7071 0.7071 0.7071 81.0479 630.3105)" font-family="'Arial'" font-size="12">QUOR 2.0</text>
<text transform="matrix(0.7071 -0.7071 0.7071 0.7071 246.041 630.3105)" font-family="'Arial'" font-size="12">Brainsfeed</text>
<text transform="matrix(0.7071 -0.7071 0.7071 0.7071 274.8984 630.3105)" font-family="'Arial'" font-size="12">Affordance</text>
<text transform="matrix(0.7071 -0.7071 0.7071 0.7071 217.334 630.3105)" font-family="'Arial'" font-size="12">Activeille</text>
<text transform="matrix(0.7071 -0.7071 0.7071 0.7071 105.582 630.3105)" font-family="'Arial'" font-size="12">Vtech</text>
<text transform="matrix(0.7071 -0.7071 0.7071 0.7071 769.2285 630.3105)" font-family="'Arial'" font-size="12">Palpitt</text>
<text transform="matrix(0.7071 -0.7071 0.7071 0.7071 332.6367 630.3105)" font-family="'Arial'" font-size="12">Brainsfeed.es</text>
<text transform="matrix(0.7071 -0.7071 0.7071 0.7071 55.1855 630.3105)" font-family="'Arial'" font-size="12">CaddE-Réputation</text>
<text transform="matrix(0.7071 -0.7071 0.7071 0.7071 388.7227 630.3105)" font-family="'Arial'" font-size="12">Demain la veille</text>
<text transform="matrix(0.7071 -0.7071 0.7071 0.7071 416.7656 630.3105)" font-family="'Arial'" font-size="12">Inter Ligere</text>
<text transform="matrix(0.7071 -0.7071 0.7071 0.7071 444.8076 630.3105)" font-family="'Arial'" font-size="12">Les infostratèges</text>
<text transform="matrix(0.7071 -0.7071 0.7071 0.7071 472.8506 630.3105)" font-family="'Arial'" font-size="12">Michelle Blanc</text>
<text transform="matrix(0.7071 -0.7071 0.7071 0.7071 500.8936 630.3105)" font-family="'Arial'" font-size="12">Outils Froids </text>
<text transform="matrix(0.7071 -0.7071 0.7071 0.7071 743.4395 630.3105)" font-family="'Arial'" font-size="12">Vedocci</text>
<text transform="matrix(0.7071 -0.7071 0.7071 0.7071 564.9795 630.3105)" font-family="'Arial'" font-size="12">VerbalKint </text>
<text transform="matrix(0.7071 -0.7071 0.7071 0.7071 593.0215 630.3105)" font-family="'Arial'" font-size="12">Vincent Abry</text>
<text transform="matrix(0.7071 -0.7071 0.7071 0.7071 621.0645 630.3105)" font-family="'Arial'" font-size="12">Opinion Watch </text>
<text transform="matrix(0.7071 -0.7071 0.7071 0.7071 26.334 630.3105)" font-family="'Arial'" font-size="12">Internet et Opinion(s) </text>
<text transform="matrix(0.7071 -0.7071 0.7071 0.7071 649.1504 630.3105)" font-family="'Arial'" font-size="12">Actulligence</text>
<text transform="matrix(0.7071 -0.7071 0.7071 0.7071 677.1934 630.3105)" font-family="'Arial'" font-size="12">Blogs et i&amp;e</text>
<text transform="matrix(0.7071 -0.7071 0.7071 0.7071 360.6289 630.3105)" font-family="'Arial'" font-size="12">Kamablog</text>
<text transform="matrix(0.7071 -0.7071 0.7071 0.7071 304.543 630.3105)" font-family="'Arial'" font-size="12">Boulevard de l&apos;info</text>
<text transform="matrix(0.7071 -0.7071 0.7071 0.7071 532.8857 620.1289)"><tspan x="0" y="0" font-family="'Arial'" font-size="12">Digital </tspan><tspan x="0.001" y="14.4" font-family="'Arial'" font-size="12">Reputation Blog</tspan></text>
<text transform="matrix(0.7071 -0.7071 0.7071 0.7071 705.8301 620.1289)"><tspan x="0" y="0" font-family="'Arial'" font-size="12">Le Blog du </tspan><tspan x="0.001" y="14.4" font-family="'Arial'" font-size="12">Personal Branding</tspan></text>
<text transform="matrix(0.7071 -0.7071 0.7071 0.7071 253.7109 734.9336)" font-family="'Arial'" font-size="12">Marketing Weblog</text>
<text transform="matrix(0.7071 -0.7071 0.7071 0.7071 197.3965 734.9336)" font-family="'Arial'" font-size="12">E-conomy</text>
<text transform="matrix(0.7071 -0.7071 0.7071 0.7071 101.082 734.9336)" font-family="'Arial'" font-size="12">eTc</text>
<text transform="matrix(0.7071 -0.7071 0.7071 0.7071 67.6943 734.9336)" font-family="'Arial'" font-size="12">Influencia</text>
<text transform="matrix(0.7071 -0.7071 0.7071 0.7071 311.7539 734.9336)" font-family="'Arial'" font-size="12">Javier Godoy</text>
<text transform="matrix(0.7071 -0.7071 0.7071 0.7071 339.7969 734.9336)" font-family="'Arial'" font-size="12">Markarina</text>
<text transform="matrix(0.7071 -0.7071 0.7071 0.7071 373.4512 724.75)"><tspan x="0" y="0" font-family="'Arial'" font-size="12">Marketing </tspan><tspan x="0" y="14.402" font-family="'Arial'" font-size="12">participativo</tspan></text>
<text transform="matrix(0.7071 -0.7071 0.7071 0.7071 411.6641 734.9336)" font-family="'Arial'" font-size="12">Marketing Directo</text>
<text transform="matrix(0.7071 -0.7071 0.7071 0.7071 439.2578 734.9336)" font-family="'Arial'" font-size="12">Marketingnews.es</text>
<text transform="matrix(0.7071 -0.7071 0.7071 0.7071 467.2998 734.9258)" font-family="'Arial'" font-size="12">The orange market</text>
<text transform="matrix(0.7071 -0.7071 0.7071 0.7071 25.334 724.752)"><tspan x="0" y="0" font-family="'Arial'" font-size="12">El blog de </tspan><tspan x="0" y="14.402" font-family="'Arial'" font-size="12">Garrigos y Llopis</tspan></text>
<text transform="matrix(0.7071 -0.7071 0.7071 0.7071 495.3428 734.9336)" font-family="'Arial'" font-size="12">Cédric Deniaud </text>
<text transform="matrix(0.7071 -0.7071 0.7071 0.7071 531.9004 725.9336)"><tspan x="0" y="0" font-family="'Arial'" font-size="12">Marketing &amp; </tspan><tspan x="0" y="14.402" font-family="'Arial'" font-size="12">Innovation </tspan></text>
<text transform="matrix(0.7071 -0.7071 0.7071 0.7071 577.2207 724.9336)"><tspan x="0" y="0" font-family="'Arial'" font-size="12">Marketing </tspan><tspan x="0" y="14.402" font-family="'Arial'" font-size="12">Alternatif</tspan></text>
<text transform="matrix(0.7071 -0.7071 0.7071 0.7071 611.5 734.9336)" font-family="'Arial'" font-size="12">Marketingrama</text>
<text transform="matrix(0.7071 -0.7071 0.7071 0.7071 147.7725 165.1362)" font-family="'Arial'" font-size="12">Roycod Blog</text>
<text transform="matrix(0.7071 -0.7071 0.7071 0.7071 224.5439 734.9336)" font-family="'Arial'" font-size="12">Joelapompe</text>
<text transform="matrix(0.7071 -0.7071 0.7071 0.7071 282.7109 734.9336)" font-family="'Arial'" font-size="12">Marketing is Dead</text>
<circle fill="#0B4A9E" cx="29.413" cy="154.402" r="5.5"/>
<circle fill="#0B4A9E" cx="209.272" cy="309.705" r="5.5"/>
<circle fill="#0B4A9E" cx="251.565" cy="309.611" r="5.5"/>
<text transform="matrix(0.7071 -0.7071 0.7071 0.7071 395.79 162.3066)" font-family="'Arial'" font-size="12">Deziner Folio</text>
<text transform="matrix(0.7071 -0.7071 0.7071 0.7071 324.627 296.5723)" font-family="'Arial'" font-size="12">CSS Globe</text>
<text transform="matrix(0.7071 -0.7071 0.7071 0.7071 287.6787 292.252)" font-family="'Arial'" font-size="12">I love typography</text>
<text transform="matrix(0.7071 -0.7071 0.7071 0.7071 251.5654 295.3921)" font-family="'Arial'" font-size="12">Smashing Magazine</text>
<text transform="matrix(0.7071 -0.7071 0.7071 0.7071 209.3232 285.2095)"><tspan x="0" y="0" font-family="'Arial'" font-size="12">Script &amp; </tspan><tspan x="0.001" y="14.401" font-family="'Arial'" font-size="12">Style</tspan></text>
<circle fill="#0B4A9E" cx="288.536" cy="309.704" r="5.5"/>
<circle fill="#0B4A9E" cx="80.688" cy="309.706" r="5.5"/>
<text transform="matrix(0.7071 -0.7071 0.7071 0.7071 48.4531 297.8589)" font-family="'Arial'" font-size="12">Ouinon</text>
<circle fill="#C693C7" cx="30.465" cy="347.774" r="5.5"/>
<text transform="matrix(0.7071 -0.7071 0.7071 0.7071 46.5273 344.3662)"><tspan x="0" y="0" font-family="'Arial'" font-size="12">Serial </tspan><tspan x="0.001" y="14.401" font-family="'Arial'" font-size="12">Mapper</tspan></text>
<circle fill="#FFFFFF" stroke="#231F20" stroke-width="3" cx="29.465" cy="310.288" r="6.781"/>
<text transform="matrix(0.7071 -0.7071 0.7071 0.7071 394.6543 189.5981)" font-family="'Arial'" font-size="12">Wartmag</text>
<circle fill="#0B4A9E" cx="379.229" cy="247.843" r="5.5"/>
<circle fill="#0B4A9E" cx="29.439" cy="193.338" r="5.5"/>
<circle fill="#0B4A9E" cx="379.229" cy="165.136" r="5.5"/>
<circle fill="#0B4A9E" cx="29.492" cy="269.278" r="5.5"/>
<circle fill="#0B4A9E" cx="379.229" cy="125.539" r="5.5"/>
<circle fill="#0B4A9E" cx="29.466" cy="231.309" r="5.5"/>
<circle fill="#0B4A9E" cx="323.269" cy="310.288" r="5.5"/>
<text transform="matrix(0.7071 -0.7071 0.7071 0.7071 46.1094 260.147)"><tspan x="0" y="0" font-family="'Arial'" font-size="12">Janko At </tspan><tspan x="0.001" y="14.401" font-family="'Arial'" font-size="12">Warp Speed</tspan></text>
<text transform="matrix(0.7071 -0.7071 0.7071 0.7071 395.6152 127.7266)" font-family="'Arial'" font-size="12">Molly</text>
<text transform="matrix(0.7071 -0.7071 0.7071 0.7071 48.084 232.8955)" font-family="'Arial'" font-size="12">Vectips</text>
<text transform="matrix(0.7071 -0.7071 0.7071 0.7071 46.1953 159.6357)" font-family="'Arial'" font-size="12">Spoongraphics</text>
<text transform="matrix(0.7071 -0.7071 0.7071 0.7071 398.9678 248.8428)"><tspan x="0" y="0" font-family="'Arial'" font-size="12">Covert </tspan><tspan x="0.001" y="14.401" font-family="'Arial'" font-size="12">Prestige</tspan></text>
<rect x="382.668" y="279.536" fill="#F989AD" width="6.999" height="36.717"/>
<path fill="#F989AD" d="M383.913,313.502l526.168,0.001c0,0,3.906-2.625,3.906-3.5s-3.906-3.5-3.906-3.5l-526.168-0.001V313.502z"/>
<text transform="matrix(0.7071 -0.7071 0.7071 0.7071 410.6172 303.0352)" font-family="'Arial'" font-size="12">Nettuts</text>
<text transform="matrix(0.7071 -0.7071 0.7071 0.7071 408.6172 284.0918)" font-family="'Arial'" font-size="12">Css4design</text>
<path fill="#FFFFFF" stroke="#231F20" stroke-width="3" d="M398.961,310.003c0,3.452-2.447,6.25-5.468,6.25h-17.73
	c-3.02,0-5.468-2.798-5.468-6.25l0,0c0-3.452,2.448-6.25,5.468-6.25h17.73C396.514,303.753,398.961,306.551,398.961,310.003
	L398.961,310.003z"/>
<path fill="#FFFFFF" stroke="#231F20" stroke-width="3" d="M398.961,285.064c0,3.451-2.447,6.25-5.468,6.25h-17.73
	c-3.02,0-5.468-2.799-5.468-6.25l0,0c0-3.452,2.448-6.25,5.468-6.25h17.73C396.514,278.814,398.961,281.612,398.961,285.064
	L398.961,285.064z"/>
<text transform="matrix(0.7071 -0.7071 0.7071 0.7071 81.8867 297.5137)" font-family="'Arial'" font-size="12">Pixenjoy</text>
<text transform="matrix(0.7071 -0.7071 0.7071 0.7071 46.1953 195.7202)" font-family="'Arial'" font-size="12">Komodomedia</text>
<circle fill="#F989AD" cx="533.255" cy="310.016" r="5.5"/>
<circle fill="#F989AD" cx="755.349" cy="310.016" r="5.5"/>
<circle fill="#F989AD" cx="501.527" cy="310.016" r="5.5"/>
<circle fill="#F989AD" cx="469.8" cy="310.016" r="5.5"/>
<circle fill="#F989AD" cx="438.072" cy="310.016" r="5.5"/>
<circle fill="#F989AD" cx="564.982" cy="310.016" r="5.5"/>
<circle fill="#F989AD" cx="596.711" cy="310.016" r="5.5"/>
<circle fill="#F989AD" cx="628.438" cy="310.016" r="5.5"/>
<circle fill="#F989AD" cx="660.166" cy="310.016" r="5.5"/>
<circle fill="#F989AD" cx="691.894" cy="310.016" r="5.5"/>
<circle fill="#F989AD" cx="723.621" cy="310.016" r="5.5"/>
<circle fill="#F989AD" cx="787.076" cy="310.016" r="5.5"/>
<circle fill="#F989AD" cx="850.532" cy="310.016" r="5.5"/>
<text transform="matrix(0.7071 -0.7071 0.7071 0.7071 567.3828 296.9805)" font-family="'Arial'" font-size="12">Devthought</text>
<circle fill="#F989AD" cx="882.26" cy="310.016" r="5.5"/>
<text transform="matrix(0.7071 -0.7071 0.7071 0.7071 438.4414 296.9805)" font-family="'Arial'" font-size="12">Ajaxian</text>
<text transform="matrix(0.7071 -0.7071 0.7071 0.7071 470.4004 296.98)" font-family="'Arial'" font-size="12">aNieto2K</text>
<text transform="matrix(0.7071 -0.7071 0.7071 0.7071 760.6592 294.4502)" font-family="'Arial'" font-size="12">Clientcide</text>
<text transform="matrix(0.7071 -0.7071 0.7071 0.7071 535.0557 296.9805)" font-family="'Arial'" font-size="12">David Walsh</text>
<text transform="matrix(0.7071 -0.7071 0.7071 0.7071 599.7109 296.9805)" font-family="'Arial'" font-size="12">Jack of All Trades</text>
<text transform="matrix(0.7071 -0.7071 0.7071 0.7071 632.0381 296.9805)" font-family="'Arial'" font-size="12">James Padolsey</text>
<text transform="matrix(0.7071 -0.7071 0.7071 0.7071 664.3662 296.98)" font-family="'Arial'" font-size="12">MooTools Blog</text>
<text transform="matrix(0.7071 -0.7071 0.7071 0.7071 696.6934 296.5898)" font-family="'Arial'" font-size="12">jQuery Blog</text>
<text transform="matrix(0.7071 -0.7071 0.7071 0.7071 728.3223 295.9561)" font-family="'Arial'" font-size="12">Maurice Svay</text>
<text transform="matrix(0.7071 -0.7071 0.7071 0.7071 793.6768 291.3145)" font-family="'Arial'" font-size="12">og5</text>
<text transform="matrix(0.7071 -0.7071 0.7071 0.7071 502.7275 296.5718)" font-family="'Arial'" font-size="12">Performance web</text>
<text transform="matrix(0.7071 -0.7071 0.7071 0.7071 881.0039 296.9805)" font-family="'Arial'" font-size="12">Pompage</text>
<text transform="matrix(0.7071 -0.7071 0.7071 0.7071 913.9873 294.4502)" font-family="'Arial'" font-size="12">Rey Bango</text>
<text transform="matrix(0.7071 -0.7071 0.7071 0.7071 850.1377 298.6934)" font-family="'Arial'" font-size="12">Woork</text>
<circle fill="#F989AD" cx="913.987" cy="310.016" r="5.5"/>
<path fill="#90D4CD" d="M643.926,86.526c0,1.932-0.945,3.5-2.113,3.5H375.885c-1.167,0-2.114-1.567-2.114-3.5l0,0
	c0-1.934,3.2-3.5,4.367-3.5h263.675C642.98,83.026,643.926,84.593,643.926,86.526L643.926,86.526z"/>
<text transform="matrix(0.7071 -0.7071 0.7071 0.7071 378.918 74.9463)" font-family="'Arial'" font-size="12">Michaël Villar</text>
<text transform="matrix(0.7071 -0.7071 0.7071 0.7071 415.584 74.0679)" font-family="'Arial'" font-size="12">TUAW</text>
<text transform="matrix(0.7071 -0.7071 0.7071 0.7071 443.627 74.0762)" font-family="'Arial'" font-size="12">MacBidouille</text>
<text transform="matrix(0.7071 -0.7071 0.7071 0.7071 471.6689 74.0762)" font-family="'Arial'" font-size="12">Macplus</text>
<text transform="matrix(0.7071 -0.7071 0.7071 0.7071 499.7129 74.0762)" font-family="'Arial'" font-size="12">iGeneration</text>
<text transform="matrix(0.7071 -0.7071 0.7071 0.7071 527.7539 74.0762)" font-family="'Arial'" font-size="12">Cuk</text>
<text transform="matrix(0.7071 -0.7071 0.7071 0.7071 555.7969 74.0767)" font-family="'Arial'" font-size="12">AppleInsider</text>
<text transform="matrix(0.7071 -0.7071 0.7071 0.7071 583.8398 74.0767)" font-family="'Arial'" font-size="12">MacGeneration </text>
<text transform="matrix(0.7071 -0.7071 0.7071 0.7071 611.8828 74.0767)" font-family="'Arial'" font-size="12">Elitist Snob</text>
<text transform="matrix(0.7071 -0.7071 0.7071 0.7071 643.9258 74.0767)" font-family="'Arial'" font-size="12">Applesfera</text>
<circle fill="#FFFFFF" stroke="#231F20" stroke-width="3" cx="379.586" cy="87.222" r="6.781"/>
<circle fill="#EC297B" cx="188.477" cy="640.321" r="5.5"/>
<circle fill="#EC297B" cx="27.333" cy="640.321" r="5.5"/>
<circle fill="#FD7929" cx="34.307" cy="746.839" r="5.5"/>
<circle fill="#FD7929" cx="67.315" cy="746.839" r="5.5"/>
<circle fill="#FD7929" cx="100.323" cy="746.839" r="5.5"/>
<text transform="matrix(0.7071 -0.7071 0.7071 0.7071 781.0889 492.1172)" font-family="'Arial'" font-size="12">Clochix</text>
<path fill="#016A3C" d="M823.104,37.571c0,0-2.625-3.661-3.5-3.661s-3.5,3.661-3.5,3.661v487.062v6.024v151.132h6.998l0.002-157.156
	l-0.002-0.001L823.104,37.571z"/>
<text transform="matrix(0.7071 -0.7071 0.7071 0.7071 832.5898 291.9561)" font-family="'Arial'" font-size="12">Dator</text>
<circle fill="#FFFFFF" stroke="#231F20" stroke-width="3" cx="820.086" cy="309.387" r="6.781"/>
<circle fill="#016A3C" cx="819.604" cy="268.756" r="5.5"/>
<circle fill="#016A3C" cx="819.398" cy="339.172" r="5.5"/>
<text transform="matrix(0.7071 -0.7071 0.7071 0.7071 837.7842 343.6719)" font-family="'Arial'" font-size="12">Znarf</text>
<circle fill="#016A3C" cx="819.398" cy="372.943" r="5.5"/>
<text transform="matrix(0.7071 -0.7071 0.7071 0.7071 837.4502 628.1172)" font-family="'Arial'" font-size="12">Akra&apos;s DevNotes</text>
<text transform="matrix(0.7071 -0.7071 0.7071 0.7071 837.4502 530.6465)"><tspan x="0" y="0" font-family="'Arial'" font-size="12">Sarah Haïm-</tspan><tspan x="0" y="14.402" font-family="'Arial'" font-size="12">Lubczanski</tspan></text>
<path fill="#016A3C" d="M819.605,650.294c3.037,0,5.498,2.461,5.498,5.498s-2.461,5.502-5.498,5.502s-5.502-2.465-5.502-5.502
	S816.568,650.294,819.605,650.294z"/>
<circle fill="#016A3C" cx="819.605" cy="681.789" r="5.5"/>
<circle fill="#016A3C" cx="819.605" cy="628.116" r="5.5"/>
<circle fill="#016A3C" cx="819.604" cy="572.573" r="5.5"/>
<circle fill="#016A3C" cx="819.604" cy="599.345" r="5.5"/>
<text transform="matrix(0.7071 -0.7071 0.7071 0.7071 835.0566 243.21)" font-family="'Arial'" font-size="12">Thomas Rabaix</text>
<text transform="matrix(0.7071 -0.7071 0.7071 0.7071 837.4502 447.916)" font-family="'Arial'" font-size="12">W0www</text>
<text transform="matrix(0.7071 -0.7071 0.7071 0.7071 835.0488 214.6187)" font-family="'Arial'" font-size="12">Left on the Web</text>
<text transform="matrix(0.7071 -0.7071 0.7071 0.7071 837.4502 577.6953)" font-family="'Arial'" font-size="12">Julien Pauli</text>
<text transform="matrix(0.7071 -0.7071 0.7071 0.7071 837.4502 682.541)"><tspan x="0" y="0" font-family="'Arial'" font-size="12">Laurent </tspan><tspan x="0.001" y="14.4" font-family="'Arial'" font-size="12">Jouanneau</tspan></text>
<text transform="matrix(0.7071 -0.7071 0.7071 0.7071 835.0488 268.7788)" font-family="'Arial'" font-size="12">Mirmo Dynamics</text>
<text transform="matrix(0.7071 -0.7071 0.7071 0.7071 835.0488 41.3442)" font-family="'Arial'" font-size="12">Cal Evans</text>
<text transform="matrix(0.7071 -0.7071 0.7071 0.7071 835.0488 185.0508)" font-family="'Arial'" font-size="12">Fabien Potencier</text>
<text transform="matrix(0.7071 -0.7071 0.7071 0.7071 837.2842 372.4009)" font-family="'Arial'" font-size="12">Mageekblog</text>
<text transform="matrix(0.7071 -0.7071 0.7071 0.7071 837.4502 603.5879)" font-family="'Arial'" font-size="12">Oncle Tom</text>
<text transform="matrix(0.7071 -0.7071 0.7071 0.7071 835.0488 68.1382)" font-family="'Arial'" font-size="12">PHP Impact</text>
<text transform="matrix(0.7071 -0.7071 0.7071 0.7071 835.0488 125.9141)" font-family="'Arial'" font-size="12">Symfony Blog</text>
<text transform="matrix(0.7071 -0.7071 0.7071 0.7071 835.0488 97.3462)" font-family="'Arial'" font-size="12">Redo The Web</text>
<text transform="matrix(0.7071 -0.7071 0.7071 0.7071 837.4502 657.793)" font-family="'Arial'" font-size="12">Planet PHP</text>
<text transform="matrix(0.7071 -0.7071 0.7071 0.7071 837.4502 476.0293)" font-family="'Arial'" font-size="12">Jérémy Barthe</text>
<text transform="matrix(0.7071 -0.7071 0.7071 0.7071 835.0488 154.0078)" font-family="'Arial'" font-size="12">Planet symfony</text>
<text transform="matrix(0.7071 -0.7071 0.7071 0.7071 839.9756 394.0703)" font-family="'Arial'" font-size="12">Damien Mathieu</text>
<circle fill="#016A3C" cx="819.398" cy="474.029" r="5.5"/>
<circle fill="#016A3C" cx="819.398" cy="533.802" r="5.5"/>
<circle fill="#016A3C" cx="819.398" cy="443.486" r="5.5"/>
<path fill="#DEA91A" d="M445.649,500.551l372.167-0.002c0,0,2.77,2.625,2.77,3.5s-2.77,3.5-2.77,3.5H445.649V500.551z"/>
<text transform="matrix(0.7071 -0.7071 0.7071 0.7071 837.4502 504.0488)" font-family="'Arial'" font-size="12">Prendre un café</text>
<circle fill="#FFFFFF" stroke="#231F20" stroke-width="3" cx="818.618" cy="504.048" r="6.781"/>
<text transform="matrix(0.7071 -0.7071 0.7071 0.7071 604.9912 492.1172)" font-family="'Arial'" font-size="12">Aza&apos;s Thoughts</text>
<text transform="matrix(0.7071 -0.7071 0.7071 0.7071 548.9053 492.1172)" font-family="'Arial'" font-size="12">Mark Shuttleworth</text>
<text transform="matrix(0.7071 -0.7071 0.7071 0.7071 576.9482 492.1172)" font-family="'Arial'" font-size="12">Planet Libre</text>
<text transform="matrix(0.7071 -0.7071 0.7071 0.7071 488.5723 492.1172)" font-family="'Arial'" font-size="12">Ubuntu Blog</text>
<text transform="matrix(0.7071 -0.7071 0.7071 0.7071 633.0342 492.1172)" font-family="'Arial'" font-size="12">Planet Ubuntu-fr</text>
<text transform="matrix(0.7071 -0.7071 0.7071 0.7071 661.0762 492.1172)" font-family="'Arial'" font-size="12">Where is Ploum?</text>
<text transform="matrix(0.7071 -0.7071 0.7071 0.7071 689.1191 492.1172)" font-family="'Arial'" font-size="12">Mozilla Labs</text>
<text transform="matrix(0.7071 -0.7071 0.7071 0.7071 717.1621 492.1172)" font-family="'Arial'" font-size="12">Linuxfr</text>
<text transform="matrix(0.7071 -0.7071 0.7071 0.7071 749.2051 492.1172)" font-family="'Arial'" font-size="12">Linus Torvald</text>
<path fill="#90278E" d="M443,399.803l375.098-0.002c0,0,2.791,2.625,2.791,3.5s-2.791,3.5-2.791,3.5H443V399.803z"/>
<circle fill="#FFFFFF" stroke="#231F20" stroke-width="3" cx="818.92" cy="403.3" r="6.781"/>
<circle fill="#90278E" cx="557.124" cy="403.302" r="5.5"/>
<circle fill="#90278E" cx="602.948" cy="403.302" r="5.5"/>
<circle fill="#90278E" cx="691.599" cy="403.302" r="5.5"/>
<circle fill="#90278E" cx="730.423" cy="403.302" r="5.5"/>
<circle fill="#90278E" cx="367.461" cy="503.544" r="5.5"/>
<circle fill="#90278E" cx="772.248" cy="403.302" r="5.5"/>
<circle fill="#EC297B" cx="246.5" cy="640.321" r="5.5"/>
<circle fill="#EC297B" cx="275.5" cy="640.321" r="5.5"/>
<circle fill="#FD7929" cx="224.544" cy="746.839" r="5.5"/>
<circle fill="#FD7929" cx="311.753" cy="746.839" r="5.5"/>
<circle fill="#FD7929" cx="339.796" cy="746.839" r="5.5"/>
<circle fill="#FD7929" cx="375.839" cy="746.839" r="5.5"/>
<circle fill="#FD7929" cx="411.664" cy="746.839" r="5.5"/>
<circle fill="#FD7929" cx="439.257" cy="746.839" r="5.5"/>
<circle fill="#FD7929" cx="467.3" cy="746.839" r="5.5"/>
<circle fill="#FD7929" cx="495.343" cy="746.839" r="5.5"/>
<circle fill="#FD7929" cx="536.371" cy="746.839" r="5.5"/>
<circle fill="#FD7929" cx="580.221" cy="746.839" r="5.5"/>
<circle fill="#FD7929" cx="611.5" cy="746.839" r="5.5"/>
<circle fill="#FD7929" cx="195.687" cy="746.839" r="5.5"/>
<circle fill="#FD7929" cx="253.71" cy="746.839" r="5.5"/>
<circle fill="#FD7929" cx="282.71" cy="746.839" r="5.5"/>
<circle fill="#DEA91A" cx="548.906" cy="504.048" r="5.5"/>
<circle fill="#DEA91A" cx="576.948" cy="504.048" r="5.5"/>
<circle fill="#DEA91A" cx="604.991" cy="504.048" r="5.5"/>
<circle fill="#DEA91A" cx="633.034" cy="504.048" r="5.5"/>
<circle fill="#DEA91A" cx="661.076" cy="504.048" r="5.5"/>
<circle fill="#DEA91A" cx="689.119" cy="504.048" r="5.5"/>
<circle fill="#DEA91A" cx="717.162" cy="504.048" r="5.5"/>
<circle fill="#DEA91A" cx="749.205" cy="504.048" r="5.5"/>
<circle fill="#DEA91A" cx="781.248" cy="504.048" r="5.5"/>
<circle fill="#C4CA0C" cx="134.613" cy="125.539" r="5.5"/>
<g>
	<circle fill="#90D4CD" cx="415.584" cy="86.346" r="5.5"/>
	<circle fill="#90D4CD" cx="443.627" cy="86.346" r="5.5"/>
	<circle fill="#90D4CD" cx="471.669" cy="86.346" r="5.5"/>
	<circle fill="#90D4CD" cx="499.712" cy="86.346" r="5.5"/>
	<circle fill="#90D4CD" cx="527.755" cy="86.346" r="5.5"/>
	<circle fill="#90D4CD" cx="555.797" cy="86.346" r="5.5"/>
	<circle fill="#90D4CD" cx="583.84" cy="86.346" r="5.5"/>
	<circle fill="#90D4CD" cx="611.883" cy="86.346" r="5.5"/>
	<circle fill="#90D4CD" cx="643.926" cy="86.346" r="5.5"/>
</g>
<g>
	<circle fill="#FFCF00" cx="415.584" cy="206.014" r="5.5"/>
	<circle fill="#FFCF00" cx="443.627" cy="206.014" r="5.5"/>
	<circle fill="#FFCF00" cx="471.669" cy="206.014" r="5.5"/>
	<circle fill="#FFCF00" cx="499.712" cy="206.014" r="5.5"/>
	<circle fill="#FFCF00" cx="527.755" cy="206.014" r="5.5"/>
	<circle fill="#FFCF00" cx="555.797" cy="206.014" r="5.5"/>
	<circle fill="#FFCF00" cx="583.84" cy="206.014" r="5.5"/>
	<circle fill="#FFCF00" cx="611.883" cy="206.014" r="5.5"/>
	<circle fill="#FFCF00" cx="643.926" cy="206.014" r="5.5"/>
</g>
<circle fill="#FFCF00" cx="674.721" cy="206.014" r="5.5"/>
<circle fill="#FFCF00" cx="702.764" cy="206.014" r="5.5"/>
<circle fill="#FFFFFF" stroke="#231F20" stroke-width="3" cx="441.65" cy="504.298" r="6.781"/>
<circle fill="#90278E" cx="441.649" cy="452.351" r="5.5"/>
<text transform="matrix(0.7071 -0.7071 0.7071 0.7071 520.6152 492.1094)" font-family="'Arial'" font-size="12">The Fridge</text>
<text transform="matrix(0.7071 -0.7071 0.7071 0.7071 456.8164 492.334)" font-family="'Arial'" font-size="12">Biologeek</text>
<text transform="matrix(0.7071 -0.7071 0.7071 0.7071 276.1387 463.8926)" font-family="'Arial'" font-size="12">Django Blog</text>
<text transform="matrix(0.7071 -0.7071 0.7071 0.7071 730.4229 392.7168)" font-family="'Arial'" font-size="12">Planet Django</text>
<text transform="matrix(0.7071 -0.7071 0.7071 0.7071 369.4609 490.2129)" font-family="'Arial'" font-size="12">Gilles Fabio</text>
<text transform="matrix(0.7071 -0.7071 0.7071 0.7071 597.7109 382.5347)"><tspan x="0" y="0" font-family="'Arial'" font-size="12">Je hais le </tspan><tspan x="0.001" y="14.401" font-family="'Arial'" font-size="12"> printemps</tspan></text>
<text transform="matrix(0.7071 -0.7071 0.7071 0.7071 399.915 490.2129)" font-family="'Arial'" font-size="12">Jeff Croft</text>
<text transform="matrix(0.7071 -0.7071 0.7071 0.7071 305.0078 492.334)" font-family="'Arial'" font-size="12">Lazy Pythonista</text>
<text transform="matrix(0.7071 -0.7071 0.7071 0.7071 686.6191 382.5342)"><tspan x="0" y="0" font-family="'Arial'" font-size="12">Un Electron </tspan><tspan x="0.001" y="14.401" font-family="'Arial'" font-size="12">Libre</tspan></text>
<text transform="matrix(0.7071 -0.7071 0.7071 0.7071 643.7012 382.5337)"><tspan x="0" y="0" font-family="'Arial'" font-size="12">Surfing in </tspan><tspan x="0" y="14.401" font-family="'Arial'" font-size="12">Kansas</tspan></text>
<circle fill="#DEA91A" cx="488.573" cy="504.048" r="5.5"/>
<circle fill="#DEA91A" cx="520.615" cy="504.048" r="5.5"/>
<circle fill="#90278E" cx="479.474" cy="402.965" r="5.5"/>
<text transform="matrix(0.7071 -0.7071 0.7071 0.7071 768.248 382.5337)"><tspan x="0" y="0" font-family="'Arial'" font-size="12">Fetchez le </tspan><tspan x="0" y="14.401" font-family="'Arial'" font-size="12">Python</tspan></text>
<text transform="matrix(0.7071 -0.7071 0.7071 0.7071 479.4736 392.7168)" font-family="'Arial'" font-size="12">Eric Florenzano</text>
<text transform="matrix(0.7071 -0.7071 0.7071 0.7071 461.6982 455.7422)" font-family="'Arial'" font-size="12">The B-List</text>
<circle fill="#90278E" cx="441.649" cy="402.964" r="5.5"/>
<circle fill="#90278E" cx="258.554" cy="504.297" r="5.5"/>
<circle fill="#90278E" cx="304.007" cy="504.297" r="5.5"/>
<circle fill="#90278E" cx="399.915" cy="504.297" r="5.5"/>
<circle fill="#90278E" cx="258.554" cy="462.68" r="5.5"/>
<text transform="matrix(0.7071 -0.7071 0.7071 0.7071 554.5156 382.5337)"><tspan x="0" y="0" font-family="'Arial'" font-size="12">Jacob Kaplan-</tspan><tspan x="0" y="14.401" font-family="'Arial'" font-size="12">Moss</tspan></text>
<text transform="matrix(0.7071 -0.7071 0.7071 0.7071 275.0791 492.334)" font-family="'Arial'" font-size="12">James Tauber</text>
<text transform="matrix(0.7071 -0.7071 0.7071 0.7071 275.9951 433.6709)" font-family="'Arial'" font-size="12">Jannis Leidel</text>
<text transform="matrix(0.7071 -0.7071 0.7071 0.7071 435.1484 382.5342)"><tspan x="0" y="0" font-family="'Arial'" font-size="12">Open </tspan><tspan x="0.001" y="14.401" font-family="'Arial'" font-size="12">Kosmaczewski</tspan></text>
<text transform="matrix(0.7071 -0.7071 0.7071 0.7071 514.2988 392.7168)" font-family="'Arial'" font-size="12">Simon Willison</text>
<text transform="matrix(0.7071 -0.7071 0.7071 0.7071 275.9951 408.1211)" font-family="'Arial'" font-size="12">Gawel&apos;s blurb</text>
<path fill="#90278E" d="M255.055,507.138l-0.002-103.405c0,0,2.626-0.769,3.501-0.769s3.5,0.769,3.5,0.769v103.405H255.055z"/>
<circle fill="#90278E" cx="258.78" cy="431.747" r="5.5"/>
<circle fill="#90278E" cx="258.554" cy="402.963" r="5.5"/>
<circle fill="#90278E" cx="514.299" cy="402.965" r="5.5"/>
<circle fill="#90278E" cx="645.773" cy="403.302" r="5.5"/>
<path fill="#26A9E0" d="M917.559,542.512l-0.002-141.871c0,0,2.626-1.056,3.501-1.056s3.5,1.056,3.5,1.056v141.871H917.559z"/>
<path fill="#26A9E0" d="M921.06,465.675c3.037,0,5.498,2.461,5.498,5.498s-2.461,5.502-5.498,5.502s-5.502-2.465-5.502-5.502
	S918.022,465.675,921.06,465.675z"/>
<circle fill="#26A9E0" cx="921.06" cy="504.923" r="5.5"/>
<circle fill="#26A9E0" cx="921.059" cy="437.426" r="5.5"/>
<circle fill="#016A3C" cx="819.604" cy="240.9" r="5.5"/>
<circle fill="#016A3C" cx="819.604" cy="36.601" r="5.5"/>
<circle fill="#016A3C" cx="819.604" cy="64.643" r="5.5"/>
<circle fill="#016A3C" cx="819.604" cy="92.686" r="5.5"/>
<circle fill="#016A3C" cx="819.604" cy="120.729" r="5.5"/>
<circle fill="#016A3C" cx="819.604" cy="148.772" r="5.5"/>
<circle fill="#016A3C" cx="819.604" cy="179.815" r="5.5"/>
<circle fill="#016A3C" cx="819.604" cy="211.857" r="5.5"/>
<text transform="matrix(0.7071 -0.7071 0.7071 0.7071 934.5254 542.9512)" font-family="'Arial'" font-size="12">Alex Payne</text>
<text transform="matrix(0.7071 -0.7071 0.7071 0.7071 928.5576 394.0703)" font-family="'Arial'" font-size="12">EggsOnBread</text>
<text transform="matrix(0.7071 -0.7071 0.7071 0.7071 937.0576 436.0957)" font-family="'Arial'" font-size="12">Lanza on Web</text>
<text transform="matrix(0.7071 -0.7071 0.7071 0.7071 937.5576 473.9355)"><tspan x="0" y="0" font-family="'Arial'" font-size="12">Shiny happy </tspan><tspan x="0.001" y="14.4" font-family="'Arial'" font-size="12">people coding</tspan></text>
<text transform="matrix(0.7071 -0.7071 0.7071 0.7071 938.5576 509.5488)" font-family="'Arial'" font-size="12">T37</text>
<circle fill="#26A9E0" cx="921.06" cy="541.802" r="5.5"/>
<text transform="matrix(0.7071 -0.7071 0.7071 0.7071 887.4873 394.0703)" font-family="'Arial'" font-size="12">Pablo&apos;s Development</text>
<circle fill="#26A9E0" cx="921.058" cy="402.922" r="5.5"/>
<text transform="matrix(1 0 0 1 626.5137 750.3398)" fill="#FD7929" font-family="'Arial-Bold'" font-size="13">(WEB)MARKETING</text>
<text transform="matrix(1 0 0 1 599.4912 659.915)" fill="#EC297B" font-family="'Arial-Bold'" font-size="13">VEILLE/I.E/K.M/E-REPUTATION</text>
<text transform="matrix(1 0 0 1 721.2207 523.5518)" fill="#DEA91A" font-family="'Arial-Bold'" font-size="13">OPEN SOURCE</text>
<text transform="matrix(1 0 0 1 262.0542 523.5518)" fill="#90278E" font-family="'Arial-Bold'" font-size="13">PYTHON</text>
<text transform="matrix(1 0 0 1 917.0742 562.2939)" fill="#26A9E0" font-family="'Arial-Bold'" font-size="13">RUBY</text>
<text transform="matrix(0 -1 1 0 810.5537 55.6475)" fill="#016A3C" font-family="'Arial-Bold'" font-size="13">PHP</text>
<text transform="matrix(0 -1 1 0 123.8008 526.8008)" fill="#C4CA0C" font-family="'Arial-Bold'" font-size="13">HIGH-TECH</text>
<text transform="matrix(1 0 0 1 241 328.8691)" fill="#0B4A9E" font-family="'Arial-Bold'" font-size="13">(WEB)DESIGN</text>
<text transform="matrix(1 0 0 1 639.2734 328.8691)" fill="#F989AD" font-family="'Arial-Bold'" font-size="13">JAVASCRIPT</text>
<text transform="matrix(0 -1 1 0 20.2324 535.7969)" fill="#C693C7" font-family="'Arial-Bold'" font-size="13">CARTO-DATAVIZ</text>
<text transform="matrix(1 0 0 1 651.2734 224.3125)" fill="#FFCF00" font-family="'Arial-Bold'" font-size="13">BD/ILLUS.</text>
<text transform="matrix(1 0 0 1 608.6094 105.6465)" fill="#90D4CD" font-family="'Arial-Bold'" font-size="13">APPLE</text>
<text transform="matrix(1 0 0 1 25.4648 105.3125)" fill="#753D0A" font-family="'Arial-Bold'" font-size="13">MOBILE</text>
<path fill="#EC1C24" d="M210.325,86.526c0-1.933,0.452-3.5,1.011-3.5l103.846,0c0.558,0,1.011,1.567,1.011,3.5l0,0
	c0,1.933-0.453,3.5-1.011,3.5H211.335C210.777,90.026,210.325,88.459,210.325,86.526L210.325,86.526z"/>
<text transform="matrix(0.7071 -0.7071 0.7071 0.7071 315.1963 74.7495)"><tspan x="0" y="0" font-family="'Arial'" font-size="12">Seul maître </tspan><tspan x="0.001" y="14.401" font-family="'Arial'" font-size="12">  à bord</tspan></text>
<circle fill="#EC1C24" cx="245.634" cy="86.524" r="5.5"/>
<circle fill="#EC1C24" cx="211.356" cy="86.524" r="5.5"/>
<circle fill="#EC1C24" cx="279.911" cy="86.524" r="5.5"/>
<text transform="matrix(0.7071 -0.7071 0.7071 0.7071 211.624 72.6372)" font-family="'Arial'" font-size="12">Seo Blackout</text>
<text transform="matrix(0.7071 -0.7071 0.7071 0.7071 279.9111 72.6367)" font-family="'Arial'" font-size="12">Matt Cutts</text>
<text transform="matrix(0.7071 -0.7071 0.7071 0.7071 245.6338 72.6367)" font-family="'Arial'" font-size="12">The Black Melvyn</text>
<circle fill="#EC1C24" cx="317.525" cy="86.524" r="5.5"/>
<text transform="matrix(1 0 0 1 267.8096 105.6465)" fill="#EC1C24" font-family="'Arial-Bold'" font-size="13">SEO/SEM</text>
<circle fill="#C693C7" cx="30.661" cy="547.68" r="5.5"/>
<circle fill="#C693C7" cx="30.563" cy="427.736" r="5.5"/>
<circle fill="#C693C7" cx="30.612" cy="467.717" r="5.5"/>
<circle fill="#C693C7" cx="30.514" cy="387.756" r="5.5"/>
<text transform="matrix(0.7071 -0.7071 0.7071 0.7071 51.6934 389.7559)" font-family="'Arial'" font-size="12">FlowingData</text>
<text transform="matrix(0.7071 -0.7071 0.7071 0.7071 48.333 420.0352)"><tspan x="0" y="0" font-family="'Arial'" font-size="12">Information </tspan><tspan x="0" y="14.402" font-family="'Arial'" font-size="12"> Aesthetics</tspan></text>
<circle fill="#C693C7" cx="30.612" cy="507.698" r="5.5"/>
<text transform="matrix(0.7071 -0.7071 0.7071 0.7071 48.084 468.1816)" font-family="'Arial'" font-size="12">Datavisualization</text>
<text transform="matrix(0.7071 -0.7071 0.7071 0.7071 47.333 500.5488)"><tspan x="0" y="0" font-family="'Arial'" font-size="12">Information is</tspan><tspan x="0" y="14.402" font-family="'Arial'" font-size="12"> beautiful</tspan></text>
<text transform="matrix(0.7071 -0.7071 0.7071 0.7071 48.333 549.4746)" font-family="'Arial'" font-size="12">La Cartoteca</text>
<circle fill="#90278E" cx="335.086" cy="504.465" r="5.5"/>
<text transform="matrix(0.7071 -0.7071 0.7071 0.7071 337.0859 491.1348)" font-family="'Arial'" font-size="12">Kevin Fricovsky</text>
</svg>
